<?xml version="1.0" encoding="UTF-8" standalone="no"?>
<!-- Created with Inkscape (http://www.inkscape.org/) -->

<svg
   width="320"
   height="320"
   viewBox="0 0 320 320"
   version="1.1"
   id="svg5094"
   inkscape:version="1.1.2 (0a00cf5339, 2022-02-04)"
   sodipodi:docname="qpwgraph.svg"
   inkscape:export-filename="qpwgraph.png"
   inkscape:export-xdpi="9.6000004"
   inkscape:export-ydpi="9.6000004"
   xmlns:inkscape="http://www.inkscape.org/namespaces/inkscape"
   xmlns:sodipodi="http://sodipodi.sourceforge.net/DTD/sodipodi-0.dtd"
   xmlns:xlink="http://www.w3.org/1999/xlink"
   xmlns="http://www.w3.org/2000/svg"
   xmlns:svg="http://www.w3.org/2000/svg"
   xmlns:rdf="http://www.w3.org/1999/02/22-rdf-syntax-ns#"
   xmlns:cc="http://creativecommons.org/ns#"
   xmlns:dc="http://purl.org/dc/elements/1.1/">
  <defs
     id="defs5088">
    <linearGradient
       inkscape:collect="always"
       id="LinearGradient1">
      <stop
         style="stop-color:#000000;stop-opacity:0.8;"
         offset="0"
         id="stop1145" />
      <stop
         style="stop-color:#000000;stop-opacity:0.2;"
         offset="1"
         id="stop1147" />
    </linearGradient>
    <linearGradient
       inkscape:collect="always"
       xlink:href="#LinearGradient1"
       id="linearGradient1151"
       x1="29.799999"
       y1="29.799999"
       x2="1.8"
       y2="1.8"
       gradientUnits="userSpaceOnUse" />
    <linearGradient
       inkscape:collect="always"
       xlink:href="#LinearGradient1"
       id="linearGradient1509"
       x1="29.799999"
       y1="29.799999"
       x2="1.8"
       y2="1.8"
       gradientUnits="userSpaceOnUse" />
    <linearGradient
       inkscape:collect="always"
       xlink:href="#LinearGradient1"
       id="linearGradient2059"
       x1="30"
       y1="30"
       x2="2"
       y2="2"
       gradientUnits="userSpaceOnUse" />
    <linearGradient
       inkscape:collect="always"
       xlink:href="#LinearGradient1"
       id="linearGradient2481"
       x1="30"
       y1="30"
       x2="2"
       y2="2"
       gradientUnits="userSpaceOnUse" />
    <linearGradient
       inkscape:collect="always"
       xlink:href="#LinearGradient1"
       id="linearGradient2775"
       x1="30"
       y1="30"
       x2="2"
       y2="2"
       gradientUnits="userSpaceOnUse" />
    <linearGradient
       inkscape:collect="always"
       xlink:href="#LinearGradient1"
       id="linearGradient3261"
       x1="30"
       y1="30"
       x2="10"
       y2="10"
       gradientUnits="userSpaceOnUse" />
    <linearGradient
       inkscape:collect="always"
       xlink:href="#LinearGradient1"
       id="linearGradient1537"
       x1="6"
       y1="296.53333"
       x2="4"
       y2="293.53333"
       gradientUnits="userSpaceOnUse" />
    <linearGradient
       inkscape:collect="always"
       xlink:href="#LinearGradient1"
       id="linearGradient1539"
       x1="6"
       y1="306.03333"
       x2="4"
       y2="303.03333"
       gradientUnits="userSpaceOnUse" />
    <linearGradient
       inkscape:collect="always"
       xlink:href="#LinearGradient1"
       id="linearGradient1541"
       x1="6"
       y1="315.53333"
       x2="4"
       y2="312.53333"
       gradientUnits="userSpaceOnUse" />
    <linearGradient
       inkscape:collect="always"
       xlink:href="#LinearGradient1"
       id="linearGradient1543"
       x1="28"
       y1="296.53333"
       x2="26"
       y2="293.53333"
       gradientUnits="userSpaceOnUse" />
    <linearGradient
       inkscape:collect="always"
       xlink:href="#LinearGradient1"
       id="linearGradient1545"
       x1="28"
       y1="306.03333"
       x2="26"
       y2="303.03333"
       gradientUnits="userSpaceOnUse" />
    <linearGradient
       inkscape:collect="always"
       xlink:href="#LinearGradient1"
       id="linearGradient1547"
       x1="28"
       y1="315.53333"
       x2="26"
       y2="312.53333"
       gradientUnits="userSpaceOnUse" />
    <linearGradient
       inkscape:collect="always"
       xlink:href="#LinearGradient1"
       id="linearGradient3219"
       x1="4"
       y1="293.53333"
       x2="6"
       y2="296.53333"
       gradientUnits="userSpaceOnUse" />
    <linearGradient
       inkscape:collect="always"
       xlink:href="#LinearGradient1"
       id="linearGradient3221"
       x1="4"
       y1="303.03333"
       x2="6"
       y2="306.03333"
       gradientUnits="userSpaceOnUse" />
    <linearGradient
       inkscape:collect="always"
       xlink:href="#LinearGradient1"
       id="linearGradient3223"
       x1="4"
       y1="312.53333"
       x2="6"
       y2="315.53333"
       gradientUnits="userSpaceOnUse" />
    <linearGradient
       inkscape:collect="always"
       xlink:href="#LinearGradient1"
       id="linearGradient3225"
       x1="26"
       y1="293.53333"
       x2="28"
       y2="296.53333"
       gradientUnits="userSpaceOnUse" />
    <linearGradient
       inkscape:collect="always"
       xlink:href="#LinearGradient1"
       id="linearGradient3227"
       x1="26"
       y1="303.03333"
       x2="28"
       y2="306.03333"
       gradientUnits="userSpaceOnUse" />
    <linearGradient
       inkscape:collect="always"
       xlink:href="#LinearGradient1"
       id="linearGradient3229"
       x1="26"
       y1="312.53333"
       x2="28"
       y2="315.53333"
       gradientUnits="userSpaceOnUse" />
    <linearGradient
       inkscape:collect="always"
       xlink:href="#LinearGradient1"
       id="linearGradient4867"
       x1="6"
       y1="296.53333"
       x2="5"
       y2="295.03333"
       gradientUnits="userSpaceOnUse" />
    <linearGradient
       inkscape:collect="always"
       xlink:href="#LinearGradient1"
       id="linearGradient4869"
       x1="6"
       y1="306.03333"
       x2="5"
       y2="304.53333"
       gradientUnits="userSpaceOnUse" />
    <linearGradient
       inkscape:collect="always"
       xlink:href="#LinearGradient1"
       id="linearGradient4871"
       x1="6"
       y1="315.53333"
       x2="5"
       y2="314.03333"
       gradientUnits="userSpaceOnUse" />
    <linearGradient
       inkscape:collect="always"
       xlink:href="#LinearGradient1"
       id="linearGradient4873"
       x1="28"
       y1="296.53333"
       x2="27"
       y2="295.03333"
       gradientUnits="userSpaceOnUse" />
    <linearGradient
       inkscape:collect="always"
       xlink:href="#LinearGradient1"
       id="linearGradient4875"
       x1="28"
       y1="306.03333"
       x2="27"
       y2="304.53333"
       gradientUnits="userSpaceOnUse" />
    <linearGradient
       inkscape:collect="always"
       xlink:href="#LinearGradient1"
       id="linearGradient4877"
       x1="28"
       y1="315.53333"
       x2="27"
       y2="314.03333"
       gradientUnits="userSpaceOnUse" />
  </defs>
  <sodipodi:namedview
     id="base"
     pagecolor="#ffffff"
     bordercolor="#666666"
     borderopacity="1.0"
     inkscape:pageopacity="0.0"
     inkscape:pageshadow="2"
     inkscape:zoom="2.453125"
     inkscape:cx="159.79618"
     inkscape:cy="160"
     inkscape:document-units="px"
     inkscape:current-layer="layer1"
     showgrid="true"
     units="px"
     inkscape:pagecheckerboard="true"
     inkscape:window-width="1920"
     inkscape:window-height="1015"
     inkscape:window-x="0"
     inkscape:window-y="0"
     inkscape:window-maximized="1">
    <inkscape:grid
       type="xygrid"
       id="grid5641"
       empspacing="4"
       spacingx="5"
       spacingy="5" />
  </sodipodi:namedview>
  <metadata
     id="metadata5091">
    <rdf:RDF>
      <cc:Work
         rdf:about="">
        <dc:format>image/svg+xml</dc:format>
        <dc:type
           rdf:resource="http://purl.org/dc/dcmitype/StillImage" />
      </cc:Work>
    </rdf:RDF>
  </metadata>
  <g
     inkscape:label="Layer 1"
     inkscape:groupmode="layer"
     id="layer1"
     transform="translate(0,-288.53333)">
    <g
       id="g1584"
       inkscape:label="Group 1.2S"
       style="display:inline"
       transform="matrix(10,0,0,10,0.2,-2596.6)">
      <path
         style="display:inline;fill:none;fill-opacity:0.2;fill-rule:evenodd;stroke:url(#linearGradient1151);stroke-width:1.6;stroke-linecap:round;stroke-linejoin:bevel;stroke-miterlimit:4;stroke-dasharray:none;stroke-opacity:0.2;paint-order:stroke fill markers"
         d="M 5.5,5 C 5.5,5 4,5 4,6.5 4,8 5.5,8 5.5,8 h 4 C 14,14 13,14.5 13,14.5 H 5.5 c 0,0 -1.5,0 -1.5,1.5 0,2 1.5,1.5 1.5,1.5 H 13 c 0,0 1,0.5 -3.5,6.5 h -4 C 5.5,24 4,24 4,25.5 4,27 5.5,27 5.5,27 h 5 C 20,16 12,16 21.5,27 h 5 c 0,0 1.5,0 1.5,-1.5 C 28,24 26.5,24 26.5,24 h -4 C 18,18 19,17.5 19,17.5 h 7.5 c 0,0 1.5,0 1.5,-1.5 0,-1.5 -1.5,-1.5 -1.5,-1.5 H 19 c 0,0 -1,-0.5 3.5,-6.5 h 4 C 26.5,8 28,8 28,6.5 28,5 26.5,5 26.5,5 h -5 C 12,16 20,16 10.5,5 Z"
         transform="translate(0,288.53333)"
         id="path1582"
         inkscape:connector-curvature="0"
         inkscape:label="Connect 33"
         sodipodi:nodetypes="csccccsccccsccccccccccccccscccc" />
    </g>
    <g
       id="g1484"
       inkscape:label="Group 1.1S"
       style="display:inline"
       transform="matrix(10,0,0,10,0.2,-2596.6)">
      <path
         style="display:inline;fill:none;fill-opacity:0.2;fill-rule:evenodd;stroke:url(#linearGradient1509);stroke-width:1.2;stroke-linecap:round;stroke-linejoin:bevel;stroke-miterlimit:4;stroke-dasharray:none;stroke-opacity:0.2;paint-order:stroke fill markers"
         d="M 5.5,5 C 5.5,5 4,5 4,6.5 4,8 5.5,8 5.5,8 h 4 C 14,14 13,14.5 13,14.5 H 5.5 c 0,0 -1.5,0 -1.5,1.5 0,2 1.5,1.5 1.5,1.5 H 13 c 0,0 1,0.5 -3.5,6.5 h -4 C 5.5,24 4,24 4,25.5 4,27 5.5,27 5.5,27 h 5 C 20,16 12,16 21.5,27 h 5 c 0,0 1.5,0 1.5,-1.5 C 28,24 26.5,24 26.5,24 h -4 C 18,18 19,17.5 19,17.5 h 7.5 c 0,0 1.5,0 1.5,-1.5 0,-1.5 -1.5,-1.5 -1.5,-1.5 H 19 c 0,0 -1,-0.5 3.5,-6.5 h 4 C 26.5,8 28,8 28,6.5 28,5 26.5,5 26.5,5 h -5 C 12,16 20,16 10.5,5 Z"
         transform="translate(0,288.53333)"
         id="path1482"
         inkscape:connector-curvature="0"
         inkscape:label="Connect 33"
         sodipodi:nodetypes="csccccsccccsccccccccccccccscccc" />
    </g>
    <g
       id="g1865"
       inkscape:label="Group 1"
       style="display:inline"
       transform="matrix(10,0,0,10,0,-2596.8)">
      <path
         style="display:inline;fill:#ffffff;fill-opacity:1;fill-rule:evenodd;stroke:#000000;stroke-width:0.8;stroke-linecap:round;stroke-linejoin:bevel;stroke-miterlimit:4;stroke-dasharray:none;stroke-opacity:0.2;paint-order:stroke fill markers"
         d="M 5.5,5 C 5.5,5 4,5 4,6.5 4,8 5.5,8 5.5,8 h 4 C 14,14 13,14.5 13,14.5 H 5.5 c 0,0 -1.5,0 -1.5,1.5 0,2 1.5,1.5 1.5,1.5 H 13 c 0,0 1,0.5 -3.5,6.5 h -4 C 5.5,24 4,24 4,25.5 4,27 5.5,27 5.5,27 h 5 C 20,16 12,16 21.5,27 h 5 c 0,0 1.5,0 1.5,-1.5 C 28,24 26.5,24 26.5,24 h -4 C 18,18 19,17.5 19,17.5 h 7.5 c 0,0 1.5,0 1.5,-1.5 0,-1.5 -1.5,-1.5 -1.5,-1.5 H 19 c 0,0 -1,-0.5 3.5,-6.5 h 4 C 26.5,8 28,8 28,6.5 28,5 26.5,5 26.5,5 h -5 C 12,16 20,16 10.5,5 Z"
         transform="translate(0,288.53333)"
         id="path1863"
         inkscape:connector-curvature="0"
         inkscape:label="Connect 33"
         sodipodi:nodetypes="csccccsccccsccccccccccccccscccc" />
    </g>
    <g
       id="g941"
       inkscape:label="Group 1.1B"
       style="display:inline"
       transform="matrix(10,0,0,10,0,-2596.8)">
      <path
         style="display:inline;fill:none;fill-opacity:1;fill-rule:evenodd;stroke:url(#linearGradient2059);stroke-width:0.6;stroke-linecap:round;stroke-linejoin:bevel;stroke-miterlimit:4;stroke-dasharray:none;stroke-opacity:0.2;paint-order:stroke fill markers"
         d="M 5.5,5 C 5.5,5 4,5 4,6.5 4,8 5.5,8 5.5,8 h 4 C 14,14 13,14.5 13,14.5 H 5.5 c 0,0 -1.5,0 -1.5,1.5 0,2 1.5,1.5 1.5,1.5 H 13 c 0,0 1,0.5 -3.5,6.5 h -4 C 5.5,24 4,24 4,25.5 4,27 5.5,27 5.5,27 h 5 C 20,16 12,16 21.5,27 h 5 c 0,0 1.5,0 1.5,-1.5 C 28,24 26.5,24 26.5,24 h -4 C 18,18 19,17.5 19,17.5 h 7.5 c 0,0 1.5,0 1.5,-1.5 0,-1.5 -1.5,-1.5 -1.5,-1.5 H 19 c 0,0 -1,-0.5 3.5,-6.5 h 4 C 26.5,8 28,8 28,6.5 28,5 26.5,5 26.5,5 h -5 C 12,16 20,16 10.5,5 Z"
         transform="translate(0,288.53333)"
         id="path939"
         inkscape:connector-curvature="0"
         inkscape:label="Connect 33"
         sodipodi:nodetypes="csccccsccccsccccccccccccccscccc" />
    </g>
    <g
       id="g1005"
       inkscape:label="Group 1.2B"
       style="display:inline"
       transform="matrix(10,0,0,10,0,-2596.8)">
      <path
         style="display:inline;fill:none;fill-opacity:1;fill-rule:evenodd;stroke:url(#linearGradient2481);stroke-width:1;stroke-linecap:round;stroke-linejoin:bevel;stroke-miterlimit:4;stroke-dasharray:none;stroke-opacity:0.2;paint-order:stroke fill markers"
         d="M 5.5,5 C 5.5,5 4,5 4,6.5 4,8 5.5,8 5.5,8 h 4 C 14,14 13,14.5 13,14.5 H 5.5 c 0,0 -1.5,0 -1.5,1.5 0,2 1.5,1.5 1.5,1.5 H 13 c 0,0 1,0.5 -3.5,6.5 h -4 C 5.5,24 4,24 4,25.5 4,27 5.5,27 5.5,27 h 5 C 20,16 12,16 21.5,27 h 5 c 0,0 1.5,0 1.5,-1.5 C 28,24 26.5,24 26.5,24 h -4 C 18,18 19,17.5 19,17.5 h 7.5 c 0,0 1.5,0 1.5,-1.5 0,-1.5 -1.5,-1.5 -1.5,-1.5 H 19 c 0,0 -1,-0.5 3.5,-6.5 h 4 C 26.5,8 28,8 28,6.5 28,5 26.5,5 26.5,5 h -5 C 12,16 20,16 10.5,5 Z"
         transform="translate(0,288.53333)"
         id="path1003"
         inkscape:connector-curvature="0"
         inkscape:label="Connect 33"
         sodipodi:nodetypes="csccccsccccsccccccccccccccscccc" />
    </g>
    <g
       id="g1009"
       inkscape:label="Group 1.3B"
       style="display:inline"
       transform="matrix(10,0,0,10,0,-2596.8)">
      <path
         style="display:inline;fill:none;fill-opacity:1;fill-rule:evenodd;stroke:url(#linearGradient2775);stroke-width:1.4;stroke-linecap:round;stroke-linejoin:bevel;stroke-miterlimit:4;stroke-dasharray:none;stroke-opacity:0.2;paint-order:stroke fill markers"
         d="M 5.5,5 C 5.5,5 4,5 4,6.5 4,8 5.5,8 5.5,8 h 4 C 14,14 13,14.5 13,14.5 H 5.5 c 0,0 -1.5,0 -1.5,1.5 0,2 1.5,1.5 1.5,1.5 H 13 c 0,0 1,0.5 -3.5,6.5 h -4 C 5.5,24 4,24 4,25.5 4,27 5.5,27 5.5,27 h 5 C 20,16 12,16 21.5,27 h 5 c 0,0 1.5,0 1.5,-1.5 C 28,24 26.5,24 26.5,24 h -4 C 18,18 19,17.5 19,17.5 h 7.5 c 0,0 1.5,0 1.5,-1.5 0,-1.5 -1.5,-1.5 -1.5,-1.5 H 19 c 0,0 -1,-0.5 3.5,-6.5 h 4 C 26.5,8 28,8 28,6.5 28,5 26.5,5 26.5,5 h -5 C 12,16 20,16 10.5,5 Z"
         transform="translate(0,288.53333)"
         id="path1007"
         inkscape:connector-curvature="0"
         inkscape:label="Connect 33"
         sodipodi:nodetypes="csccccsccccsccccccccccccccscccc" />
    </g>
    <g
       id="g1059"
       inkscape:label="Group 1.4B"
       style="display:inline"
       transform="matrix(10,0,0,10,0,-2596.8)">
      <path
         style="display:inline;fill:none;fill-opacity:1;fill-rule:evenodd;stroke:url(#linearGradient3261);stroke-width:1.8;stroke-linecap:round;stroke-linejoin:bevel;stroke-miterlimit:4;stroke-dasharray:none;stroke-opacity:0.2;paint-order:stroke fill markers"
         d="M 5.5,5 C 5.5,5 4,5 4,6.5 4,8 5.5,8 5.5,8 h 4 C 14,14 13,14.5 13,14.5 H 5.5 c 0,0 -1.5,0 -1.5,1.5 0,2 1.5,1.5 1.5,1.5 H 13 c 0,0 1,0.5 -3.5,6.5 h -4 C 5.5,24 4,24 4,25.5 4,27 5.5,27 5.5,27 h 5 C 20,16 12,16 21.5,27 h 5 c 0,0 1.5,0 1.5,-1.5 C 28,24 26.5,24 26.5,24 h -4 C 18,18 19,17.5 19,17.5 h 7.5 c 0,0 1.5,0 1.5,-1.5 0,-1.5 -1.5,-1.5 -1.5,-1.5 H 19 c 0,0 -1,-0.5 3.5,-6.5 h 4 C 26.5,8 28,8 28,6.5 28,5 26.5,5 26.5,5 h -5 C 12,16 20,16 10.5,5 Z"
         id="path1057"
         inkscape:connector-curvature="0"
         inkscape:label="Connect 33"
         sodipodi:nodetypes="csccccsccccsccccccccccccccscccc"
         transform="translate(0,288.53333)" />
    </g>
    <g
       id="g1671"
       inkscape:label="Group 2.3S"
       style="display:inline"
       transform="matrix(10,0,0,10,0.1,-2596.6999)">
      <ellipse
         style="fill:url(#linearGradient4877);fill-opacity:1;stroke:#000000;stroke-width:2.8;stroke-linecap:round;stroke-linejoin:bevel;stroke-miterlimit:4;stroke-dasharray:none;stroke-opacity:0.2;paint-order:stroke fill markers"
         id="ellipse1659"
         cx="27"
         cy="314.03333"
         inkscape:label="Co6"
         rx="1.5"
         ry="1.4999952" />
      <ellipse
         style="fill:url(#linearGradient4875);fill-opacity:1;stroke:#000000;stroke-width:2.8;stroke-linecap:round;stroke-linejoin:bevel;stroke-miterlimit:4;stroke-dasharray:none;stroke-opacity:0.2;paint-order:stroke fill markers"
         id="ellipse1661"
         cx="27"
         cy="304.53333"
         inkscape:label="Co5"
         rx="1.5"
         ry="1.4999952" />
      <ellipse
         style="fill:url(#linearGradient4873);fill-opacity:1;stroke:#000000;stroke-width:2.8;stroke-linecap:round;stroke-linejoin:bevel;stroke-miterlimit:4;stroke-dasharray:none;stroke-opacity:0.2;paint-order:stroke fill markers"
         id="ellipse1663"
         cx="27"
         cy="295.03333"
         inkscape:label="Co4"
         rx="1.5"
         ry="1.4999952" />
      <ellipse
         style="fill:url(#linearGradient4871);fill-opacity:1;stroke:#000000;stroke-width:2.8;stroke-linecap:round;stroke-linejoin:bevel;stroke-miterlimit:4;stroke-dasharray:none;stroke-opacity:0.2;paint-order:stroke fill markers"
         id="ellipse1665"
         cx="5"
         cy="314.03333"
         inkscape:label="Co3"
         rx="1.5"
         ry="1.4999952" />
      <ellipse
         style="fill:url(#linearGradient4869);fill-opacity:1;stroke:#000000;stroke-width:2.8;stroke-linecap:round;stroke-linejoin:bevel;stroke-miterlimit:4;stroke-dasharray:none;stroke-opacity:0.2;paint-order:stroke fill markers"
         id="ellipse1667"
         cx="5"
         cy="304.53333"
         inkscape:label="Co2"
         rx="1.5"
         ry="1.4999952" />
      <ellipse
         style="opacity:1;fill:url(#linearGradient4867);fill-opacity:1;stroke:#000000;stroke-width:2.8;stroke-linecap:round;stroke-linejoin:bevel;stroke-miterlimit:4;stroke-dasharray:none;stroke-opacity:0.2;paint-order:stroke fill markers"
         id="ellipse1669"
         cx="5"
         cy="295.03333"
         inkscape:label="Co1"
         rx="1.5"
         ry="1.4999952" />
    </g>
    <g
       id="g1624"
       inkscape:label="Group 2.2S"
       style="display:inline"
       transform="matrix(10,0,0,10,0.1,-2596.6999)">
      <ellipse
         style="fill:url(#linearGradient3229);fill-opacity:1;stroke:#000000;stroke-width:2.4;stroke-linecap:round;stroke-linejoin:bevel;stroke-miterlimit:4;stroke-dasharray:none;stroke-opacity:0.2;paint-order:stroke fill markers"
         id="ellipse1612"
         cx="27"
         cy="314.03333"
         inkscape:label="Co6"
         rx="1.5"
         ry="1.4999952" />
      <ellipse
         style="fill:url(#linearGradient3227);fill-opacity:1;stroke:#000000;stroke-width:2.4;stroke-linecap:round;stroke-linejoin:bevel;stroke-miterlimit:4;stroke-dasharray:none;stroke-opacity:0.2;paint-order:stroke fill markers"
         id="ellipse1614"
         cx="27"
         cy="304.53333"
         inkscape:label="Co5"
         rx="1.5"
         ry="1.4999952" />
      <ellipse
         style="fill:url(#linearGradient3225);fill-opacity:1;stroke:#000000;stroke-width:2.4;stroke-linecap:round;stroke-linejoin:bevel;stroke-miterlimit:4;stroke-dasharray:none;stroke-opacity:0.2;paint-order:stroke fill markers"
         id="ellipse1616"
         cx="27"
         cy="295.03333"
         inkscape:label="Co4"
         rx="1.5"
         ry="1.4999952" />
      <ellipse
         style="fill:url(#linearGradient3223);fill-opacity:1;stroke:#000000;stroke-width:2.4;stroke-linecap:round;stroke-linejoin:bevel;stroke-miterlimit:4;stroke-dasharray:none;stroke-opacity:0.2;paint-order:stroke fill markers"
         id="ellipse1618"
         cx="5"
         cy="314.03333"
         inkscape:label="Co3"
         rx="1.5"
         ry="1.4999952" />
      <ellipse
         style="fill:url(#linearGradient3221);fill-opacity:1;stroke:#000000;stroke-width:2.4;stroke-linecap:round;stroke-linejoin:bevel;stroke-miterlimit:4;stroke-dasharray:none;stroke-opacity:0.2;paint-order:stroke fill markers"
         id="ellipse1620"
         cx="5"
         cy="304.53333"
         inkscape:label="Co2"
         rx="1.5"
         ry="1.4999952" />
      <ellipse
         style="opacity:1;fill:url(#linearGradient3219);fill-opacity:1;stroke:#000000;stroke-width:2.4;stroke-linecap:round;stroke-linejoin:bevel;stroke-miterlimit:4;stroke-dasharray:none;stroke-opacity:0.2;paint-order:stroke fill markers"
         id="ellipse1622"
         cx="5"
         cy="295.03333"
         inkscape:label="Co1"
         rx="1.5"
         ry="1.4999952" />
    </g>
    <g
       id="g1368"
       inkscape:label="Group 2.1S"
       style="display:inline;fill:none;stroke:none"
       transform="matrix(10,0,0,10,0,-2596.7999)">
      <ellipse
         style="fill:none;fill-opacity:0.2;stroke:url(#linearGradient1547);stroke-width:2;stroke-linecap:round;stroke-linejoin:bevel;stroke-miterlimit:4;stroke-dasharray:none;stroke-opacity:0.195238;paint-order:stroke fill markers"
         id="ellipse1356"
         cx="27"
         cy="314.03333"
         inkscape:label="Co6"
         rx="1.5"
         ry="1.4999952" />
      <ellipse
         style="fill:none;fill-opacity:0.2;stroke:url(#linearGradient1545);stroke-width:2;stroke-linecap:round;stroke-linejoin:bevel;stroke-miterlimit:4;stroke-dasharray:none;stroke-opacity:0.195238;paint-order:stroke fill markers"
         id="ellipse1358"
         cx="27"
         cy="304.53333"
         inkscape:label="Co5"
         rx="1.5"
         ry="1.4999952" />
      <ellipse
         style="fill:none;fill-opacity:0.2;stroke:url(#linearGradient1543);stroke-width:2;stroke-linecap:round;stroke-linejoin:bevel;stroke-miterlimit:4;stroke-dasharray:none;stroke-opacity:0.195238;paint-order:stroke fill markers"
         id="ellipse1360"
         cx="27"
         cy="295.03333"
         inkscape:label="Co4"
         rx="1.5"
         ry="1.4999952" />
      <ellipse
         style="fill:none;fill-opacity:0.2;stroke:url(#linearGradient1541);stroke-width:2;stroke-linecap:round;stroke-linejoin:bevel;stroke-miterlimit:4;stroke-dasharray:none;stroke-opacity:0.195238;paint-order:stroke fill markers"
         id="ellipse1362"
         cx="5"
         cy="314.03333"
         inkscape:label="Co3"
         rx="1.5"
         ry="1.4999952" />
      <ellipse
         style="fill:none;fill-opacity:0.2;stroke:url(#linearGradient1539);stroke-width:2;stroke-linecap:round;stroke-linejoin:bevel;stroke-miterlimit:4;stroke-dasharray:none;stroke-opacity:0.195238;paint-order:stroke fill markers"
         id="ellipse1364"
         cx="5"
         cy="304.53333"
         inkscape:label="Co2"
         rx="1.5"
         ry="1.4999952" />
      <ellipse
         style="opacity:1;fill:none;fill-opacity:0.2;stroke:url(#linearGradient1537);stroke-width:2;stroke-linecap:round;stroke-linejoin:bevel;stroke-miterlimit:4;stroke-dasharray:none;stroke-opacity:0.195238;paint-order:stroke fill markers"
         id="ellipse1366"
         cx="5"
         cy="295.03333"
         inkscape:label="Co1"
         rx="1.5"
         ry="1.4999952" />
    </g>
    <g
       id="g1253"
       inkscape:label="Group 2"
       style="display:inline"
       transform="matrix(10,0,0,10,0,-2596.7999)">
      <ellipse
         style="fill:none;stroke:#ffffff;stroke-width:1.2;stroke-linecap:round;stroke-linejoin:bevel;stroke-miterlimit:4;stroke-dasharray:none;stroke-opacity:1;paint-order:stroke fill markers"
         id="ellipse1241"
         cx="27"
         cy="314.03333"
         inkscape:label="Co6"
         rx="1.5"
         ry="1.4999952" />
      <ellipse
         style="fill:none;stroke:#ffffff;stroke-width:1.2;stroke-linecap:round;stroke-linejoin:bevel;stroke-miterlimit:4;stroke-dasharray:none;stroke-opacity:1;paint-order:stroke fill markers"
         id="ellipse1243"
         cx="27"
         cy="304.53333"
         inkscape:label="Co5"
         rx="1.5"
         ry="1.4999952" />
      <ellipse
         style="fill:none;stroke:#ffffff;stroke-width:1.2;stroke-linecap:round;stroke-linejoin:bevel;stroke-miterlimit:4;stroke-dasharray:none;stroke-opacity:1;paint-order:stroke fill markers"
         id="ellipse1245"
         cx="27"
         cy="295.03333"
         inkscape:label="Co4"
         rx="1.5"
         ry="1.4999952" />
      <ellipse
         style="fill:none;stroke:#ffffff;stroke-width:1.2;stroke-linecap:round;stroke-linejoin:bevel;stroke-miterlimit:4;stroke-dasharray:none;stroke-opacity:1;paint-order:stroke fill markers"
         id="ellipse1247"
         cx="5"
         cy="314.03333"
         inkscape:label="Co3"
         rx="1.5"
         ry="1.4999952" />
      <ellipse
         style="fill:none;stroke:#ffffff;stroke-width:1.2;stroke-linecap:round;stroke-linejoin:bevel;stroke-miterlimit:4;stroke-dasharray:none;stroke-opacity:1;paint-order:stroke fill markers"
         id="ellipse1249"
         cx="5"
         cy="304.53333"
         inkscape:label="Co2"
         rx="1.5"
         ry="1.4999952" />
      <ellipse
         style="opacity:1;fill:none;stroke:#ffffff;stroke-width:1.2;stroke-linecap:round;stroke-linejoin:bevel;stroke-miterlimit:4;stroke-dasharray:none;stroke-opacity:1;paint-order:stroke fill markers"
         id="ellipse1251"
         cx="5"
         cy="295.03333"
         inkscape:label="Co1"
         rx="1.5"
         ry="1.4999952" />
    </g>
  </g>
</svg>
